<?xml version="1.0" encoding="utf-8"?>
<!-- Generator: Adobe Illustrator 18.1.1, SVG Export Plug-In . SVG Version: 6.00 Build 0)  -->
<svg version="1.1" id="Layer_1" xmlns="http://www.w3.org/2000/svg" xmlns:xlink="http://www.w3.org/1999/xlink" x="0px" y="0px"
	 viewBox="0 0 800 200" enable-background="new 0 0 800 200" xml:space="preserve">
<rect x="-3" y="-3" fill="#00A1DF" width="806" height="205.5"/>
<path fill="#FFFFFF" d="M429.8,111h-59.6c-2.9,0-5.2-2.3-5.2-5.2V72.9c0-2.9,2.3-5.2,5.2-5.2h59.6c2.9,0,5.2,2.3,5.2,5.2v32.9
	C435,108.7,432.7,111,429.8,111z"/>
<path fill="#FFFFFF" d="M392.9,114.3h14.3c1,0,1.9,0.7,2.2,1.6l4,13.1c0.4,1.5-0.7,3-2.2,3h-22.2c-1.5,0-2.6-1.5-2.2-3l4-13.1
	C391,115,391.9,114.3,392.9,114.3z"/>
</svg>
