<?xml version="1.0" encoding="utf-8"?>
<!-- Generator: Adobe Illustrator 18.1.0, SVG Export Plug-In . SVG Version: 6.00 Build 0)  -->
<svg version="1.1" id="Logo" xmlns="http://www.w3.org/2000/svg" xmlns:xlink="http://www.w3.org/1999/xlink" x="0px" y="0px"
	 viewBox="0 0 229.6 48.3" enable-background="new 0 0 229.6 48.3" xml:space="preserve">
<g>
	<g>
		<polygon fill="#FFFFFF" points="48.2,24.2 24.1,48.3 0,24.1 24.2,0 		"/>
		<polygon fill="#414042" points="14.6,12.2 13.5,13.3 29.5,32.6 18.6,32.6 23.1,27.4 21.5,25.4 13.3,34.4 14.3,35.4 34.1,35.5 
			35.2,34.4 18.6,15 30,15 25.4,20.3 27.1,22.4 35,13.3 33.9,12.2 		"/>
	</g>
	<path fill="#00A0DD" d="M48,12.2v23.2h-1.5V12.2H48z"/>
	<path fill="#414042" d="M59.5,29.5v-1.4c1.2,0.4,2.5,0.7,4,0.7c2,0,3-0.7,3-2.2c0-1.2-0.7-1.9-2.2-1.9h-1.5c-2.4,0-3.7-1.1-3.7-3.2
		c0-2.2,1.6-3.3,4.7-3.3c1.4,0,2.6,0.2,3.8,0.5v1.4c-1.2-0.4-2.4-0.7-3.8-0.7c-2.1,0-3.2,0.7-3.2,2.1c0,1.2,0.7,1.9,2.2,1.9h1.5
		c2.5,0,3.7,1.1,3.7,3.2c0,2.3-1.5,3.4-4.5,3.4C62.1,30,60.7,29.9,59.5,29.5z"/>
	<path fill="#414042" d="M78.1,18.3v1.2h-3.7V30h-1.5V19.5h-3.7v-1.2H78.1z"/>
	<path fill="#414042" d="M87.5,18.3v1.2h-6.1v3.9h5.8v1.2h-5.8v4.1h6.2V30h-7.7V18.3H87.5z"/>
	<path fill="#414042" d="M100.3,18.3L95.3,30h-1.7l-5-11.6h1.6l4.3,10.1l4.2-10.1H100.3z"/>
	<path fill="#414042" d="M109.5,18.3v1.2h-6.1v3.9h5.8v1.2h-5.8v4.1h6.2V30h-7.7V18.3H109.5z"/>
	<path fill="#414042" d="M111.9,30V18.3h1.5l7.1,9.4v-9.4h1.4V30h-1.5l-7.1-9.5V30H111.9z"/>
	<path fill="#414042" d="M130.3,18.3v10.4h6.1V30h-7.6V18.3H130.3z"/>
	<path fill="#414042" d="M138.5,30H137l4.9-11.6h1.7l5,11.6h-1.7l-1.5-3.7h-3.9l0.4-1.2h2.9l-2.2-5.3L138.5,30z"/>
	<path fill="#414042" d="M150.1,30V18.3h1.5l7.1,9.4v-9.4h1.4V30h-1.5l-7.1-9.5V30H150.1z"/>
	<path fill="#414042" d="M171.8,29.5c-0.9,0.4-2,0.5-3,0.5c-4.2,0-6.3-2-6.3-6.1c0-3.8,2-5.7,6.1-5.7c1.2,0,2.3,0.2,3.3,0.5V20
		c-1-0.4-2-0.6-3.1-0.6c-3.2,0-4.8,1.5-4.8,4.5c0,3.2,1.6,4.8,4.7,4.8c0.5,0,1.1-0.1,1.7-0.2v-4h1.5V29.5z"/>
	<path fill="#414042" d="M181.9,18.3v1.2h-6.1v3.9h5.8v1.2h-5.8V30h-1.5V18.3H181.9z"/>
	<path fill="#414042" d="M183.2,24.1c0-3.9,1.9-5.9,5.8-5.9c3.8,0,5.8,2,5.8,5.9c0,3.9-1.9,5.9-5.8,5.9
		C185.2,30,183.2,28.1,183.2,24.1z M189.1,28.8c2.8,0,4.2-1.6,4.2-4.7c0-3.1-1.4-4.7-4.2-4.7c-2.8,0-4.3,1.6-4.3,4.7
		C184.8,27.2,186.3,28.8,189.1,28.8z"/>
	<path fill="#414042" d="M197.2,30V18.3h5c2.2,0,3.3,0.9,3.3,2.8c0,1.5-1.1,2.6-3.2,3.4l4,5.5h-2l-3.7-5.2v-1
		c2.2-0.4,3.3-1.2,3.3-2.6c0-1.1-0.6-1.6-1.9-1.6h-3.3V30H197.2z"/>
	<path fill="#414042" d="M207.8,30V18.3h4.2c3.9,0,5.8,1.8,5.8,5.5c0,4.1-1.9,6.1-5.8,6.1H207.8z M212.1,28.7c2.9,0,4.3-1.6,4.3-4.9
		c0-2.9-1.4-4.3-4.3-4.3h-2.7v9.2H212.1z"/>
</g>
</svg>
